<svg width="32" height="32" viewBox="0 0 32 32" fill="none" xmlns="http://www.w3.org/2000/svg">
<path d="M29.2926 6.70679C29.4801 6.89433 29.7348 7 30 7C30.0173 7 30.0345 6.99955 30.0517 6.99866C30.2987 6.98586 30.5322 6.88199 30.7071 6.70711C30.8946 6.51957 31 6.26522 31 6C31 5.73478 30.8946 5.48043 30.7071 5.29289L26.7071 1.29289C26.5196 1.10536 26.2652 1 26 1C25.7348 1 25.4804 1.10536 25.2929 1.29289C25.1054 1.48043 25 1.73478 25 2C25 2.26522 25.1054 2.51957 25.2929 2.70711L29.2926 6.70679Z" fill="black"/>
<path d="M29.8 5.6C29.9298 5.4269 30 5.21637 30 5C30 4.98719 29.9997 4.97438 29.9992 4.96157C29.9877 4.66053 29.841 4.38076 29.6 4.2C29.4269 4.07018 29.2163 4 29 4L28.9912 4.00004C28.9468 4.00043 28.9025 4.00377 28.8586 4.01005C28.596 4.04756 28.3591 4.18783 28.2 4.4L22.2 12.4C22.1104 12.5195 22.0487 12.6575 22.0194 12.8039L21.0788 17.507L10.7054 27.8804C10.415 28.1665 9.99997 28.1665 9.99997 28.1665C9.58495 28.1665 9.28933 27.8752 9.28933 27.8752L4.11958 22.7054C3.8335 22.415 3.8335 22 3.8335 22C3.8335 21.585 4.12478 21.2894 4.12478 21.2894L14.493 10.9212L19.1961 9.98058C19.3425 9.9513 19.4805 9.88959 19.6 9.8L27.6 3.8C27.8518 3.61115 28 3.31476 28 3L27.9999 2.98688C27.9971 2.77501 27.9271 2.56951 27.8 2.4C27.6408 2.18783 27.4039 2.04756 27.1414 2.01005C27.0945 2.00336 27.0473 2 27 2L26.9965 2.00001C26.7813 2.00074 26.5721 2.07088 26.4 2.2L18.5814 8.0639L13.8039 9.01942C13.6103 9.05814 13.4325 9.15329 13.2929 9.29289L2.70016 19.8856C1.8335 20.7652 1.8335 22 1.8335 22C1.8335 23.2348 2.70536 24.1196 2.70536 24.1196L7.8856 29.2998C8.76517 30.1665 9.99997 30.1665 9.99997 30.1665C11.2348 30.1665 12.1196 29.2946 12.1196 29.2946L22.7071 18.7071C22.8467 18.5675 22.9418 18.3897 22.9806 18.1961L23.9361 13.4185L29.8 5.6Z" fill="black"/>
<path d="M19.2924 20.7066C19.4799 20.8941 19.7348 21 20 21C20.2652 21 20.5196 20.8946 20.7071 20.7071C20.8946 20.5196 21 20.2652 21 20C21 19.7348 20.8946 19.4804 20.7071 19.2929L12.7072 11.293C12.5196 11.1054 12.2652 11 12 11C11.7348 11 11.4804 11.1054 11.2929 11.2929C11.1054 11.4804 11 11.7348 11 12C11 12.2652 11.1054 12.5196 11.2929 12.7071L19.2924 20.7066Z" fill="black"/>
<path d="M5.70711 18.2929C5.51957 18.1054 5.26522 18 5 18C4.73478 18 4.48043 18.1054 4.29289 18.2929C4.10536 18.4804 4 18.7348 4 19C4 19.2652 4.10536 19.5196 4.29289 19.7071L12.2929 27.7071C12.4804 27.8946 12.7348 28 13 28C13.2652 28 13.5196 27.8946 13.7071 27.7071C13.8946 27.5196 14 27.2652 14 27C14 26.7348 13.8946 26.4804 13.7071 26.2929L5.70711 18.2929Z" fill="black"/>
</svg>
