<svg width="32" height="32" viewBox="0 0 32 32" fill="none" xmlns="http://www.w3.org/2000/svg">
<path fill-rule="evenodd" clip-rule="evenodd" d="M8.5 19C8.5 19 10.364 19 11.682 20.318C11.682 20.318 13 21.636 13 23.5C13 23.5 13 25.364 11.682 26.682C11.682 26.682 10.364 28 8.5 28C8.5 28 6.63604 28 5.31802 26.682C5.31802 26.682 4 25.364 4 23.5C4 23.5 4 21.636 5.31802 20.318C5.31802 20.318 6.63604 19 8.5 19ZM8.5 21C8.5 21 7.46447 21 6.73223 21.7322C6.73223 21.7322 6 22.4645 6 23.5C6 23.5 6 24.5355 6.73223 25.2678C6.73223 25.2678 7.46447 26 8.5 26C8.5 26 9.53553 26 10.2678 25.2678C10.2678 25.2678 11 24.5355 11 23.5C11 23.5 11 22.4645 10.2678 21.7322C10.2678 21.7322 9.53553 21 8.5 21Z" fill="black"/>
<path fill-rule="evenodd" clip-rule="evenodd" d="M23.5 4C23.5 4 25.364 4 26.682 5.31802C26.682 5.31802 28 6.63604 28 8.5C28 8.5 28 10.364 26.682 11.682C26.682 11.682 25.364 13 23.5 13C23.5 13 21.636 13 20.318 11.682C20.318 11.682 19 10.364 19 8.5C19 8.5 19 6.63604 20.318 5.31802C20.318 5.31802 21.636 4 23.5 4ZM23.5 6C23.5 6 22.4645 6 21.7322 6.73223C21.7322 6.73223 21 7.46447 21 8.5C21 8.5 21 9.53553 21.7322 10.2678C21.7322 10.2678 22.4645 11 23.5 11C23.5 11 24.5355 11 25.2678 10.2678C25.2678 10.2678 26 9.53553 26 8.5C26 8.5 26 7.46447 25.2678 6.73223C25.2678 6.73223 24.5355 6 23.5 6Z" fill="black"/>
<path fill-rule="evenodd" clip-rule="evenodd" d="M8.5 4C8.5 4 10.364 4 11.682 5.31802C11.682 5.31802 13 6.63604 13 8.5C13 8.5 13 10.364 11.682 11.682C11.682 11.682 10.364 13 8.5 13C8.5 13 6.63604 13 5.31802 11.682C5.31802 11.682 4 10.364 4 8.5C4 8.5 4 6.63604 5.31802 5.31802C5.31802 5.31802 6.63604 4 8.5 4ZM8.5 6C8.5 6 7.46447 6 6.73223 6.73223C6.73223 6.73223 6 7.46447 6 8.5C6 8.5 6 9.53553 6.73223 10.2678C6.73223 10.2678 7.46447 11 8.5 11C8.5 11 9.53553 11 10.2678 10.2678C10.2678 10.2678 11 9.53553 11 8.5C11 8.5 11 7.46447 10.2678 6.73223C10.2678 6.73223 9.53553 6 8.5 6Z" fill="black"/>
<path d="M24.5 13V12C24.5 11.4477 24.0523 11 23.5 11C22.9477 11 22.5 11.4477 22.5 12V13C22.5017 13.4017 22.3504 13.7693 22.3504 13.7693C22.199 14.1368 21.9179 14.4179 21.9179 14.4179C21.6369 14.699 21.2693 14.8503 21.2693 14.8503C20.9017 15.0017 20.5042 15 20.5042 15L11.5 15C10.7067 14.9967 9.96928 15.3003 9.96928 15.3003C9.23184 15.604 8.66791 16.1679 8.66791 16.1679C8.10399 16.7318 7.80034 17.4693 7.80034 17.4693C7.49669 18.2067 7.50004 19.0042 7.50004 19.0042L7.50003 20C7.50003 20.5523 7.94772 21 8.5 21C9.05229 21 9.50003 20.5523 9.50003 20L9.50002 18.9958C9.49835 18.5983 9.6497 18.2307 9.6497 18.2307C9.80105 17.8632 10.0821 17.5821 10.0821 17.5821C10.3632 17.301 10.7308 17.1497 10.7308 17.1497C11.0983 16.9983 11.5 17 11.5 17L20.4958 17C21.2933 17.0033 22.0308 16.6997 22.0308 16.6997C22.7682 16.396 23.3321 15.8321 23.3321 15.8321C23.8961 15.2682 24.1997 14.5307 24.1997 14.5307C24.5034 13.7933 24.5 13 24.5 13Z" fill="black"/>
<path d="M7.5 12L7.50003 20C7.50003 20.5523 7.94772 21 8.5 21C9.05229 21 9.50003 20.5523 9.50003 20L9.5 12C9.5 11.4477 9.05229 11 8.5 11C7.94772 11 7.5 11.4477 7.5 12Z" fill="black"/>
</svg>
