<svg width="32" height="32" viewBox="0 0 32 32" fill="none" xmlns="http://www.w3.org/2000/svg">
<path d="M8.5 20C8.5 20.5523 8.94772 21 9.5 21H21.5C22.0523 21 22.5 20.5523 22.5 20C22.5 19.4477 22.0523 19 21.5 19H10.9134L16.4429 3.33304C16.4807 3.22591 16.5 3.11337 16.5 3C16.5 2.98744 16.4998 2.97489 16.4993 2.96234C16.4838 2.55243 16.2196 2.19353 15.8328 2.05701C15.7259 2.01928 15.6134 2 15.5 2L15.4963 2.00001C15.3482 2.00055 15.2021 2.03398 15.0685 2.09787C14.8293 2.2123 14.6453 2.41708 14.557 2.66718L8.55701 19.6672C8.51928 19.7741 8.5 19.8866 8.5 20Z" fill="black"/>
<path d="M20.5 12V28C20.5 28.5523 20.9477 29 21.5 29C22.0523 29 22.5 28.5523 22.5 28V12C22.5 11.4477 22.0523 11 21.5 11C20.9477 11 20.5 11.4477 20.5 12Z" fill="black"/>
</svg>
